<svg width="227" height="202" viewBox="0 0 227 202" fill="none" xmlns="http://www.w3.org/2000/svg">
<path d="M96.0409 9.99999C103.739 -3.33335 122.984 -3.33332 130.682 10L224.013 171.655C231.711 184.988 222.089 201.655 206.693 201.655H20.0298C4.63382 201.655 -4.98867 184.988 2.70933 171.655L96.0409 9.99999Z" fill="#FFDEF2"/>
<path d="M114.453 156.328C120.299 156.328 125.039 161.068 125.039 166.914C125.039 172.76 120.299 177.5 114.453 177.5H113.399C107.553 177.5 102.813 172.76 102.813 166.914C102.814 161.068 107.553 156.328 113.399 156.328H114.453ZM114.017 49.5C120.558 49.5002 125.736 55.0322 125.305 61.5596L119.98 142.009C119.777 145.084 117.223 147.475 114.142 147.475C111.067 147.475 108.516 145.095 108.304 142.027L102.73 61.5947C102.277 55.0547 107.461 49.5 114.017 49.5Z" fill="#DB3587" stroke="#DB3587" stroke-width="3"/>
</svg>
